<svg width="512" height="512" viewBox="0 0 512 512" fill="none" xmlns="http://www.w3.org/2000/svg">
<rect width="512" height="512" fill="white"/>
<path d="M28 28V484H484V28H28ZM406.83 136.04L382.37 159.49C380.26 161.1 379.22 163.74 379.65 166.35V338.63C379.21 341.24 380.26 343.89 382.37 345.49L406.25 368.94V374.09H286.13V368.94L310.87 344.92C313.3 342.49 313.3 341.77 313.3 338.06V198.81L244.51 373.52H235.21L155.12 198.81V315.91C154.45 320.83 156.09 325.79 159.55 329.35L191.73 368.38V373.53H100.49V368.38L132.67 329.35C136.11 325.78 137.65 320.79 136.82 315.91V180.5C137.2 176.74 135.77 173.02 132.96 170.49L104.36 136.03V130.88H193.17L261.82 281.43L322.17 130.88H406.83V136.04Z" fill="#2FA325"/>
<rect x="375" y="396" width="137" height="105" rx="52.5" fill="#5EC775"/>
<path d="M415.023 458.746C415.102 457.047 415.385 455.426 415.873 453.883C416.361 452.32 417.016 450.816 417.836 449.371C418.656 447.906 419.613 446.529 420.707 445.24C421.82 443.932 423.021 442.789 424.311 441.812C427.104 439.723 429.926 438.678 432.777 438.678C436.117 438.678 438.344 440.055 439.457 442.809C439.848 443.746 440.033 444.859 440.014 446.148C439.994 447.418 439.75 448.6 439.281 449.693C438.812 450.768 438.158 451.754 437.318 452.652C436.498 453.531 435.512 454.322 434.359 455.025C433.227 455.729 431.986 456.324 430.639 456.812C427.865 457.789 424.896 458.297 421.732 458.336C421.654 458.609 421.605 459.02 421.586 459.566C421.566 460.113 421.625 460.729 421.762 461.412C421.898 462.076 422.133 462.672 422.465 463.199C423.168 464.371 424.184 464.957 425.512 464.957C427.777 464.957 429.984 464.293 432.133 462.965C432.895 462.516 433.51 462.057 433.979 461.588C434.467 461.1 434.887 460.855 435.238 460.855C435.59 460.855 435.893 461.07 436.146 461.5C436.42 461.91 436.557 462.379 436.557 462.906C436.557 463.941 436.264 464.84 435.678 465.602C433.217 468.062 429.555 469.293 424.691 469.293C421.82 469.293 419.516 468.434 417.777 466.715C415.824 464.762 414.906 462.105 415.023 458.746ZM432.133 442.574C430.082 442.574 428.109 443.98 426.215 446.793C424.613 449.215 423.324 452.086 422.348 455.406C425.609 455.074 428.441 453.785 430.844 451.539C433.051 449.43 434.154 447.408 434.154 445.475C434.154 443.541 433.48 442.574 432.133 442.574ZM472.299 463.082C472.709 463.082 472.914 463.297 472.914 463.727C472.914 465.406 472.045 466.852 470.307 468.062C469.154 468.883 468.061 469.293 467.025 469.293C466.01 469.293 465.199 469.176 464.594 468.941C463.988 468.707 463.441 468.336 462.953 467.828C461.859 466.656 461.312 465.045 461.312 462.994C461.312 462.584 461.391 461.93 461.547 461.031C459.965 463.473 458.607 465.191 457.475 466.188C455.189 468.258 452.953 469.293 450.766 469.293C447.309 469.293 445.043 467.73 443.969 464.605C443.578 463.453 443.383 462.008 443.383 460.27C443.383 458.531 443.646 456.773 444.174 454.996C444.701 453.219 445.414 451.529 446.312 449.928C447.23 448.326 448.285 446.842 449.477 445.475C450.688 444.088 451.957 442.887 453.285 441.871C456.137 439.742 458.715 438.678 461.02 438.678C463.324 438.678 465.17 439.615 466.557 441.49C469.955 429.85 472.514 422.984 474.232 420.895C474.955 420.035 475.717 419.605 476.518 419.605C477.846 419.605 478.852 419.986 479.535 420.748C479.75 421.002 479.857 421.256 479.857 421.51C479.857 421.764 479.701 422.232 479.389 422.916C479.076 423.6 478.617 424.703 478.012 426.227C476.273 430.816 475.053 434.176 474.35 436.305C472.553 441.754 471.342 445.504 470.717 447.555L469.105 452.975C467.719 457.799 467.025 460.865 467.025 462.174C467.025 463.482 467.504 464.137 468.461 464.137C469.34 464.137 470.043 464.02 470.57 463.785L471.684 463.258C471.898 463.141 472.104 463.082 472.299 463.082ZM452.172 464.898C454.184 464.898 456.488 462.936 459.086 459.01C461.801 454.947 463.695 450.523 464.77 445.738C464.691 444.41 464.135 443.434 463.1 442.809C462.748 442.594 462.211 442.486 461.488 442.486C460.785 442.486 459.955 442.75 458.998 443.277C458.061 443.785 457.143 444.479 456.244 445.357C455.365 446.236 454.535 447.271 453.754 448.463C452.992 449.635 452.328 450.885 451.762 452.213C450.531 455.104 449.916 457.945 449.916 460.738C449.916 463.512 450.668 464.898 452.172 464.898Z" fill="white"/>
</svg>
